<?xml version="1.0" encoding="UTF-8" ?>
<!DOCTYPE svg PUBLIC "-//W3C//DTD SVG 1.1//EN" "http://www.w3.org/Graphics/SVG/1.1/DTD/svg11.dtd">
<svg width="105pt" height="61pt" viewBox="0 0 105 61" version="1.1" xmlns="http://www.w3.org/2000/svg">
<path fill="#ffffff" d=" M 0.00 0.00 L 105.00 0.00 L 105.00 61.00 L 0.00 61.00 L 0.00 0.00 Z" />
<path fill="#025b6f" d=" M 1.21 1.08 C 5.78 0.64 10.37 0.48 14.95 0.65 C 38.30 0.53 61.65 0.72 85.01 0.60 C 91.36 0.80 97.74 0.32 104.08 0.95 C 104.05 13.43 104.37 25.93 104.03 38.41 C 99.59 38.55 95.15 38.52 90.71 38.44 C 90.74 36.00 90.76 33.55 90.81 31.10 C 79.88 30.86 68.94 31.07 58.00 31.00 C 57.90 33.30 58.34 35.67 57.79 37.94 C 54.27 39.18 50.38 38.20 46.70 38.45 C 46.75 36.00 46.77 33.56 46.82 31.11 C 35.88 30.86 24.94 31.07 14.00 31.00 C 14.00 33.49 14.00 35.98 14.00 38.48 C 9.72 38.44 5.44 38.68 1.17 38.36 C 1.34 25.94 1.25 13.51 1.21 1.08 Z" />
<path fill="#ffffff" d=" M 5.83 3.87 C 6.33 3.60 7.33 3.06 7.83 2.79 C 8.30 10.07 7.67 17.38 8.21 24.65 C 11.25 24.47 14.29 24.45 17.33 24.61 L 16.79 26.32 C 13.13 26.73 9.44 26.45 5.78 26.40 C 5.76 18.89 5.64 11.38 5.83 3.87 Z" />
<path fill="#ffffff" d=" M 61.37 4.16 L 61.88 3.33 L 63.33 3.70 C 63.69 8.07 63.51 12.47 63.33 16.85 C 65.84 14.88 67.53 10.77 71.12 10.99 L 71.64 11.83 C 69.60 14.02 67.34 15.98 65.23 18.11 C 67.30 20.90 70.25 22.99 72.01 26.00 C 70.85 27.69 68.94 25.90 68.03 24.91 C 66.46 23.24 64.94 21.53 63.26 19.97 C 63.37 22.03 63.70 24.12 63.29 26.16 C 60.97 28.06 61.22 24.18 61.23 22.95 C 61.37 16.69 61.04 10.42 61.37 4.16 Z" />
<path fill="#ffffff" d=" M 30.48 12.93 C 30.76 11.80 31.07 10.66 31.78 9.71 C 31.91 10.51 32.17 12.11 32.30 12.91 C 35.28 10.79 39.27 9.89 42.71 11.41 C 45.40 12.89 47.60 15.98 47.02 19.16 C 42.35 19.41 37.66 19.42 32.98 19.50 C 33.79 22.41 36.84 24.99 39.96 24.21 C 42.67 23.65 43.65 19.90 46.76 20.39 C 45.51 26.51 37.77 27.87 33.11 24.75 C 32.70 27.88 30.95 26.18 30.45 24.33 C 27.86 27.02 23.54 27.13 20.33 25.59 C 15.30 22.55 15.45 13.49 21.25 11.34 C 24.34 10.59 28.02 10.59 30.48 12.93 Z" />
<path fill="#ffffff" d=" M 48.05 13.99 C 49.30 10.60 53.80 10.33 56.66 11.54 C 60.13 13.44 59.15 17.80 59.30 21.06 C 59.19 23.13 59.88 26.03 57.44 27.00 C 57.06 23.33 57.57 19.61 56.96 15.96 C 56.37 12.88 51.51 11.91 50.17 14.93 C 48.58 18.42 50.15 22.44 49.24 26.10 L 47.64 26.72 C 47.63 22.49 47.05 18.13 48.05 13.99 Z" />
<path fill="#ffffff" d=" M 74.35 12.33 C 79.39 8.50 88.45 12.30 87.46 19.14 C 82.87 20.10 78.07 19.08 73.41 19.67 C 74.45 22.32 76.90 24.92 79.97 24.63 C 83.04 24.28 84.03 20.04 87.39 20.72 C 86.12 25.48 80.46 28.09 76.01 26.04 C 70.51 24.06 69.38 15.49 74.35 12.33 Z" />
<path fill="#ffffff" d=" M 88.52 26.19 C 88.90 21.08 86.83 14.47 91.82 11.00 C 94.82 10.85 98.83 10.55 100.07 14.06 C 100.99 18.13 100.33 22.40 100.41 26.55 L 98.69 26.06 C 97.83 22.32 99.73 17.95 97.34 14.63 C 96.37 12.98 94.16 12.72 92.55 13.50 C 89.27 17.12 91.35 22.44 90.64 26.83 C 90.11 26.67 89.05 26.35 88.52 26.19 Z" />
<path fill="#025b6f" d=" M 22.39 13.41 C 25.45 12.20 29.28 13.67 30.34 16.87 C 31.84 20.42 28.40 24.12 24.98 24.62 C 21.85 24.70 19.16 21.99 18.65 19.01 C 18.73 16.64 20.36 14.51 22.39 13.41 Z" />
<path fill="#025b6f" d=" M 33.11 17.22 C 33.82 14.21 37.09 11.98 40.13 12.98 C 42.32 13.37 43.63 15.31 44.58 17.14 C 40.76 17.32 36.93 17.27 33.11 17.22 Z" />
<path fill="#025b6f" d=" M 73.53 17.32 C 74.59 15.20 76.29 12.92 78.94 13.00 C 81.87 12.71 83.94 15.03 85.34 17.28 C 81.41 17.62 77.46 17.59 73.53 17.32 Z" />
<path fill="#025b6f" d=" M 60.66 38.46 C 61.26 37.01 59.61 33.45 62.06 33.49 C 70.85 33.50 79.64 33.17 88.42 33.36 C 88.34 35.07 88.28 36.78 88.24 38.49 C 79.05 38.47 69.86 38.54 60.66 38.46 Z" />
<path fill="#025b6f" d=" M 16.20 33.68 C 25.54 33.30 34.90 33.56 44.24 33.56 C 44.25 35.19 44.25 36.83 44.24 38.47 C 34.88 38.43 25.51 38.69 16.15 38.33 C 16.18 36.78 16.20 35.23 16.20 33.68 Z" />
<path fill="#025b6f" d=" M 13.95 38.59 C 14.56 38.66 15.78 38.80 16.39 38.87 C 16.60 41.19 16.48 43.52 16.40 45.85 C 23.07 46.20 29.76 45.89 36.43 46.01 C 36.44 44.44 36.45 42.87 36.44 41.30 C 38.91 41.26 41.39 41.25 43.87 41.23 C 43.62 39.19 44.24 37.93 46.42 38.80 C 46.62 39.38 47.02 40.52 47.22 41.10 C 50.74 41.35 54.28 41.18 57.81 41.09 C 57.91 40.59 58.13 39.57 58.24 39.06 C 60.06 37.56 61.18 39.36 61.02 41.18 C 63.51 41.06 66.00 40.98 68.50 40.93 C 68.46 42.57 68.43 44.21 68.38 45.86 C 74.87 46.70 81.46 46.07 87.99 46.23 C 88.00 43.66 87.99 41.10 87.96 38.53 C 88.68 38.55 90.11 38.59 90.82 38.61 C 90.75 41.94 90.86 45.28 90.50 48.59 C 83.15 48.46 75.81 48.38 68.47 48.62 C 68.51 51.97 68.49 55.32 68.60 58.67 C 57.84 58.85 47.07 58.68 36.31 58.76 C 36.47 55.44 36.50 52.12 36.46 48.80 C 28.97 48.77 21.47 48.65 13.99 49.03 C 14.02 45.55 14.01 42.07 13.95 38.59 Z" />
<path fill="#ffffff" d=" M 39.33 43.58 C 40.79 43.62 42.26 43.63 43.72 43.62 C 43.82 44.22 44.02 45.41 44.12 46.00 C 42.36 46.00 40.61 46.00 38.85 46.00 C 38.97 45.39 39.21 44.18 39.33 43.58 Z" />
<path fill="#ffffff" d=" M 60.63 44.43 C 61.84 43.07 64.15 43.87 65.79 43.48 C 65.82 44.52 65.83 45.55 65.84 46.58 C 64.14 46.08 59.99 47.37 60.63 44.43 Z" />
<path fill="#ffffff" d=" M 46.80 43.77 C 50.52 43.73 54.25 43.73 57.98 43.77 C 57.99 45.33 58.00 46.90 58.00 48.46 C 60.68 48.48 63.35 48.48 66.03 48.53 C 66.00 51.10 65.99 53.66 66.00 56.23 C 57.00 56.26 48.00 56.27 39.00 56.23 C 39.00 53.75 39.00 51.27 39.00 48.79 C 41.57 48.74 44.14 48.74 46.71 48.76 C 46.74 47.09 46.76 45.43 46.80 43.77 Z" />
</svg>
